<svg id="Layer_1" version="1.1" viewBox="0 0 128 128" xml:space="preserve" xmlns="http://www.w3.org/2000/svg" enable-background="new 0 0 128 128"><path d="M55 97c-.8 0-1.6-.2-2.4-.5L8.7 77.2c-3-1.3-4.4-4.9-3.1-7.9 1.3-3 4.9-4.4 7.9-3.1l43.9 19.2c3 1.3 4.4 4.9 3.1 7.9-1 2.4-3.2 3.7-5.5 3.7z" fill="#000000" class="fill-ffffff"></path><path d="M97 24c-13.8 0-25 11.2-25 25v1L53.9 73.1C44.5 73.6 37 81.4 37 91c0 9.9 8.1 18 18 18 9.6 0 17.4-7.5 17.9-16.9C79.8 86.8 88.8 79.7 96 74h1c13.8 0 25-11.2 25-25s-11.2-25-25-25z" fill="#000000" class="fill-ffffff"></path><path d="M55 112c-6.3 0-12.2-2.8-16.2-7.6-1.1-1.3-.9-3.2.4-4.2 1.3-1.1 3.2-.9 4.2.4 2.9 3.4 7.1 5.4 11.5 5.4 7.9 0 14.5-6.2 14.9-14 0-.2 0-.4.1-.5v-.4c0-8.2-6.7-15-14.9-15h-1c-1.2.1-2.3-.6-2.8-1.6s-.4-2.3.3-3.2L69 49c0-15.4 12.6-28 28-28s28 12.6 28 28-12.6 28-28 28L75.8 93.7C74.5 104.1 65.6 112 55 112zm4.7-41.5c7.8 1.8 14 8 15.8 15.8l18.7-14.7c.6-.4 1.3-.7 2-.6h.9c12.1 0 22-9.9 22-22s-9.9-22-22-22-22 9.9-22 22v.9c0 .7-.2 1.4-.6 2L59.7 70.5z" fill="#ffffff" class="fill-444b54"></path><path d="M97 66c-9.4 0-17-7.6-17-17s7.6-17 17-17 17 7.6 17 17-7.6 17-17 17zm0-28c-6.1 0-11 4.9-11 11s4.9 11 11 11 11-4.9 11-11-4.9-11-11-11zM55 100c-1.2 0-2.5-.3-3.6-.8L7.5 80C3 78 .9 72.7 2.9 68.1c1-2.2 2.7-3.9 5-4.8 2.2-.9 4.7-.8 6.9.1l43.9 19.2c4.5 2 6.6 7.3 4.6 11.9-1.5 3.4-4.7 5.5-8.3 5.5zM11.1 68.7c-.4 0-.7.1-1.1.2-.7.3-1.3.9-1.7 1.6-.7 1.5 0 3.3 1.5 4l43.9 19.2c.4.2.8.3 1.2.3 1.2 0 2.3-.7 2.8-1.8.7-1.5 0-3.3-1.5-4L12.3 69c-.4-.2-.8-.3-1.2-.3z" fill="#ffffff" class="fill-444b54"></path></svg>