<svg width="180" height="41" viewBox="0 0 180 41" fill="none" xmlns="http://www.w3.org/2000/svg">
<path d="M26.7589 0.654505L33.1097 8.69096C33.1175 8.69946 33.1227 8.7099 33.1247 8.72117C33.1268 8.73243 33.1256 8.74404 33.1213 8.75466C33.1169 8.76528 33.1097 8.77451 33.1003 8.78124C33.091 8.78802 33.0798 8.79208 33.0683 8.79294L26.6552 9.49063C26.6505 9.49162 26.6455 9.49162 26.6407 9.49063L20.2267 8.78988C20.215 8.78918 20.2037 8.78526 20.1942 8.77857C20.1847 8.77188 20.1773 8.76269 20.1729 8.75203C20.1684 8.74137 20.1671 8.72971 20.1691 8.71836C20.1711 8.70701 20.1763 8.69644 20.1841 8.68789L22.3795 5.84008C22.3853 5.83248 22.3928 5.82631 22.4015 5.82208C22.4101 5.81785 22.4196 5.81561 22.4293 5.81561H26.5858C26.6023 5.81561 26.6181 5.80918 26.6298 5.7977C26.6414 5.78622 26.648 5.77064 26.648 5.75441V0.692247C26.648 0.679567 26.6521 0.667224 26.6596 0.656917C26.6671 0.646611 26.6777 0.638852 26.6898 0.634708C26.702 0.630565 26.7152 0.630246 26.7276 0.633789C26.7399 0.637337 26.7509 0.644574 26.7589 0.654505Z" />
<path d="M26.7359 9.32837L37.7231 14.4824C37.7322 14.4864 37.7401 14.4927 37.746 14.5007L39.9506 17.3567C39.9589 17.3651 39.9645 17.3757 39.9668 17.3872C39.969 17.3986 39.9678 17.4105 39.9633 17.4213C39.9588 17.4322 39.9512 17.4415 39.9414 17.4481C39.9316 17.4547 39.9201 17.4584 39.9082 17.4587L26.654 18.8744H26.6416L13.3854 17.4576C13.3735 17.4574 13.362 17.4537 13.3522 17.4471C13.3424 17.4404 13.3348 17.4311 13.3302 17.4203C13.3257 17.4095 13.3246 17.3976 13.3268 17.3861C13.329 17.3746 13.3346 17.3641 13.3429 17.3557L15.5382 14.5079C15.5441 14.5002 15.5515 14.4941 15.5602 14.4898C15.5688 14.4856 15.5783 14.4834 15.588 14.4834H26.5856C26.6021 14.4834 26.6179 14.4769 26.6296 14.4655C26.6413 14.454 26.6478 14.4384 26.6478 14.4222V9.38858C26.647 9.37792 26.649 9.36726 26.6537 9.35763C26.6583 9.34801 26.6655 9.33977 26.6743 9.33368C26.6832 9.3276 26.6936 9.32388 26.7044 9.32298C26.7152 9.32207 26.7261 9.32393 26.7359 9.32837Z" />
<path d="M26.7274 18.6941L45.385 24.1725C45.3978 24.1765 45.4092 24.1843 45.4172 24.1949L47.6199 27.0509C47.6265 27.0594 47.6309 27.0695 47.6322 27.0802C47.6335 27.0909 47.6322 27.1018 47.6278 27.1117C47.6234 27.1216 47.6163 27.1302 47.6075 27.1365C47.5987 27.1429 47.5882 27.1467 47.5772 27.1478L26.659 29.5845H26.6476L5.78534 27.158C5.76717 27.1559 5.74987 27.1491 5.73517 27.1383C5.72052 27.1275 5.70903 27.1131 5.70186 27.0966C5.69468 27.08 5.69213 27.0618 5.69442 27.0439C5.69671 27.0261 5.70375 27.0091 5.71484 26.9948L7.95894 24.2194C7.96862 24.2067 7.98112 24.1965 7.99551 24.1894C8.0099 24.1823 8.02579 24.1786 8.04186 24.1786H26.5854C26.6019 24.1786 26.6177 24.1722 26.6294 24.1607C26.6411 24.1492 26.6476 24.1336 26.6476 24.1174V18.7523C26.6477 18.7428 26.65 18.7335 26.6544 18.725C26.6588 18.7166 26.6651 18.7093 26.6728 18.7037C26.6806 18.698 26.6895 18.6942 26.699 18.6926C26.7085 18.6909 26.7182 18.6915 26.7274 18.6941Z" />
<path d="M26.7195 29.3913L52.4743 33.5151C52.4883 33.5174 52.5007 33.5243 52.5103 33.5347C52.5196 33.5451 52.5253 33.5584 52.5257 33.5723C52.5266 33.5862 52.5227 33.5999 52.5143 33.6113C52.5059 33.6226 52.4941 33.6307 52.4804 33.6344L26.6635 40.0899C26.6534 40.093 26.6425 40.093 26.6324 40.0899L1.00721 33.6824C0.992642 33.6786 0.979967 33.6697 0.971548 33.6574C0.963129 33.6451 0.959533 33.6302 0.961434 33.6155C0.963335 33.6008 0.970602 33.5873 0.981881 33.5774C0.993161 33.5676 1.00768 33.5621 1.02276 33.562H26.5857C26.6022 33.562 26.6181 33.5556 26.6297 33.5441C26.6414 33.5326 26.6479 33.517 26.6479 33.5008V29.4515C26.648 29.4427 26.6499 29.434 26.6537 29.4261C26.6574 29.4181 26.6629 29.411 26.6697 29.4053C26.6765 29.3996 26.6844 29.3954 26.693 29.393C26.7016 29.3906 26.7106 29.39 26.7195 29.3913Z" />
<path d="M59.6062 33.452V7.67188H70.6769C72.6837 7.67188 74.4177 8.04895 75.8793 8.80313C77.3408 9.55731 78.4679 10.6061 79.2619 11.9496C80.0554 13.2936 80.4523 14.8543 80.4528 16.6317C80.4528 18.4181 80.0492 19.9791 79.2421 21.3145C78.4349 22.6499 77.2858 23.6841 75.7943 24.4169C74.302 25.1508 72.531 25.5178 70.481 25.5178H63.6498V20.5619H69.232C70.2011 20.5619 71.0127 20.3965 71.6658 20.0655C72.2929 19.7584 72.8113 19.2725 73.1524 18.6717C73.49 18.0728 73.6585 17.3746 73.6585 16.5772C73.6585 15.7712 73.49 15.0734 73.1524 14.4836C72.8087 13.8889 72.2876 13.4117 71.6592 13.1161C71.0021 12.7958 70.1932 12.6357 69.232 12.6357H65.9247V33.452H59.6062Z" />
<path d="M82.605 33.452V7.67188H93.4397C95.403 7.67188 97.1 8.01584 98.5303 8.70387C99.9607 9.39189 101.064 10.3761 101.841 11.6566C102.618 12.9376 103.007 14.4537 103.007 16.2049C103.007 17.9813 102.61 19.4888 101.816 20.7277C101.022 21.9665 99.8946 22.9091 98.4348 23.5554C96.9746 24.2018 95.2455 24.525 93.2474 24.525H86.396V19.8173H92.0138C92.9605 19.8173 93.7535 19.6951 94.3917 19.4507C95.0302 19.2062 95.5144 18.8326 95.8435 18.3298C96.1732 17.8286 96.3382 17.1841 96.3382 16.3963C96.3382 15.6084 96.1732 14.9554 95.8435 14.4371C95.5135 13.9194 95.0276 13.5298 94.3855 13.2682C93.743 13.0067 92.9525 12.8759 92.0138 12.8759H88.9226V33.452H82.605ZM97.504 21.5523L104.117 33.4488H97.1154L90.6346 21.5523H97.504Z" />
<path d="M117.736 7.67188V29.4833L111.416 33.452V13.3739H111.234L105.351 16.8286V11.5445L111.838 7.67188H117.736Z" />
<path d="M135.003 15.3579C134.918 14.4393 134.541 13.7236 133.873 13.2106C133.204 12.6977 132.252 12.441 131.015 12.4404C130.199 12.4404 129.519 12.5448 128.974 12.7535C128.43 12.9622 128.022 13.248 127.749 13.611C127.478 13.9724 127.331 14.4088 127.328 14.8575C127.304 15.2111 127.386 15.5639 127.565 15.8719C127.757 16.1824 128.019 16.4458 128.331 16.6421C128.712 16.8847 129.121 17.0802 129.551 17.2242C130.077 17.4048 130.614 17.5513 131.16 17.6629L133.406 18.1601C134.589 18.3992 135.739 18.769 136.836 19.2626C137.755 19.6736 138.6 20.2276 139.339 20.9031C140.003 21.5196 140.527 22.2662 140.878 23.0944C141.226 23.9211 141.405 24.848 141.414 25.8749C141.406 27.4949 140.988 28.885 140.162 30.0454C139.337 31.2057 138.152 32.095 136.606 32.7131C135.061 33.3301 133.198 33.6389 131.019 33.6394C128.831 33.6394 126.923 33.3191 125.297 32.6786C123.671 32.0381 122.406 31.0611 121.504 29.7476C120.602 28.4367 120.139 26.7794 120.116 24.7757H126.17C126.221 25.603 126.446 26.2918 126.847 26.8421C127.264 27.4068 127.838 27.8418 128.501 28.0951C129.203 28.3785 130.019 28.5202 130.95 28.5202C131.801 28.5202 132.527 28.4076 133.127 28.1823C133.728 27.9571 134.19 27.6441 134.516 27.2432C134.836 26.8525 135.012 26.3667 135.013 25.8653C135.015 25.4098 134.853 24.9683 134.554 24.6195C134.255 24.2726 133.798 23.9721 133.181 23.7181C132.417 23.4188 131.629 23.1821 130.825 23.0103L128.092 22.3842C125.827 21.875 124.043 21.0503 122.741 19.9103C121.438 18.7702 120.788 17.226 120.789 15.2778C120.781 13.6921 121.216 12.3022 122.095 11.1082C122.974 9.91419 124.187 8.98306 125.735 8.31484C127.284 7.6471 129.051 7.31323 131.035 7.31323C133.06 7.31323 134.821 7.64922 136.316 8.32123C137.811 8.9932 138.971 9.93447 139.795 11.1451C140.621 12.3561 141.043 13.7588 141.06 15.3531L135.003 15.3579Z" />
<path d="M144.018 7.67188H151.838L158.476 23.5355H158.781L165.411 7.67188H173.335V33.452H167.27V17.5868H167.048L160.757 33.199H156.553L150.297 17.5868H150.08V33.452H144.015L144.018 7.67188Z" />
</svg>
